Renner-700-Bold.ufo
<glyph name="parenleft" format="1">
  <advance width="341"/>
  <unicode hex="0028"/>
  <outline>
    <contour>
      <point x="190" y="780" type="curve"/>
      <point x="327" y="780" type="line"/>
      <point x="257" y="630"/>
      <point x="218" y="460"/>
      <point x="218" y="290" type="curve" smooth="yes"/>
      <point x="218" y="120"/>
      <point x="257" y="-50"/>
      <point x="327" y="-200" type="curve"/>
      <point x="190" y="-200" type="line"/>
      <point x="110" y="-50"/>
      <point x="68" y="120"/>
      <point x="68" y="290" type="curve" smooth="yes"/>
      <point x="68" y="460"/>
      <point x="110" y="630"/>
    </contour>
  </outline>
</glyph>
<glyph name="two" format="1">
  <advance width="656"/>
  <unicode hex="0032"/>
  <outline>
    <contour>
      <point x="20" y="0" type="line"/>
      <point x="332" y="323" type="line" smooth="yes"/>
      <point x="388" y="383"/>
      <point x="422" y="424"/>
      <point x="422" y="480" type="curve" smooth="yes"/>
      <point x="422" y="524"/>
      <point x="394" y="568"/>
      <point x="330" y="568" type="curve" smooth="yes"/>
      <point x="265" y="568"/>
      <point x="220" y="516"/>
      <point x="220" y="441" type="curve"/>
      <point x="54" y="441" type="line"/>
      <point x="54" y="590"/>
      <point x="152" y="714"/>
      <point x="334" y="714" type="curve" smooth="yes"/>
      <point x="508" y="714"/>
      <point x="598" y="598"/>
      <point x="598" y="488" type="curve" smooth="yes"/>
      <point x="598" y="413"/>
      <point x="556" y="352"/>
      <point x="496" y="300" type="curve" smooth="yes"/>
      <point x="334" y="155" type="line"/>
      <point x="614" y="155" type="line"/>
      <point x="614" y="0" type="line"/>
    </contour>
  </outline>
</glyph>
<glyph name="at" format="1">
  <advance width="770"/>
  <unicode hex="0040"/>
  <outline>
    <contour>
      <point x="316" y="320" type="curve" smooth="yes"/>
      <point x="316" y="276"/>
      <point x="333" y="252"/>
      <point x="361" y="252" type="curve" smooth="yes"/>
      <point x="395" y="252"/>
      <point x="435" y="296"/>
      <point x="435" y="364" type="curve" smooth="yes"/>
      <point x="435" y="410"/>
      <point x="416" y="435"/>
      <point x="388" y="435" type="curve" smooth="yes"/>
      <point x="348" y="435"/>
      <point x="316" y="381"/>
    </contour>
    <contour>
      <point x="192" y="312" type="curve" smooth="yes"/>
      <point x="192" y="451"/>
      <point x="284" y="530"/>
      <point x="362" y="530" type="curve" smooth="yes"/>
      <point x="434" y="530"/>
      <point x="472" y="461"/>
      <point x="472" y="375" type="curve" smooth="yes"/>
      <point x="472" y="236"/>
      <point x="410" y="154"/>
      <point x="328" y="154" type="curve" smooth="yes"/>
      <point x="248" y="154"/>
      <point x="192" y="213"/>
    </contour>
    <contour>
      <point x="10" y="320" type="curve" smooth="yes"/>
      <point x="10" y="546"/>
      <point x="185" y="724"/>
      <point x="415" y="724" type="curve" smooth="yes"/>
      <point x="624" y="724"/>
      <point x="760" y="556"/>
      <point x="760" y="390" type="curve" smooth="yes"/>
      <point x="760" y="212"/>
      <point x="650" y="134"/>
      <point x="556" y="134" type="curve" smooth="yes"/>
      <point x="486" y="134"/>
      <point x="433" y="193"/>
      <point x="443" y="259" type="curve"/>
      <point x="434" y="295" type="line"/>
      <point x="460" y="520" type="line"/>
      <point x="579" y="520" type="line"/>
      <point x="548" y="304" type="line" smooth="yes"/>
      <point x="547" y="297"/>
      <point x="546" y="286"/>
      <point x="546" y="278" type="curve" smooth="yes"/>
      <point x="546" y="254"/>
      <point x="553" y="241"/>
      <point x="571" y="241" type="curve" smooth="yes"/>
      <point x="595" y="241"/>
      <point x="640" y="273"/>
      <point x="640" y="390" type="curve" smooth="yes"/>
      <point x="640" y="516"/>
      <point x="564" y="625"/>
      <point x="415" y="625" type="curve" smooth="yes"/>
      <point x="239" y="625"/>
      <point x="130" y="496"/>
      <point x="130" y="320" type="curve" smooth="yes"/>
      <point x="130" y="170"/>
      <point x="208" y="66"/>
      <point x="370" y="66" type="curve" smooth="yes"/>
      <point x="440" y="66"/>
      <point x="508" y="77"/>
      <point x="566" y="109" type="curve"/>
      <point x="617" y="26" type="line"/>
      <point x="557" y="-8"/>
      <point x="467" y="-28"/>
      <point x="365" y="-28" type="curve" smooth="yes"/>
      <point x="139" y="-28"/>
      <point x="10" y="121"/>
    </contour>
  </outline>
</glyph>
<glyph name="N" format="1">
  <advance width="793"/>
  <unicode hex="004E"/>
  <outline>
    <contour>
      <point x="78" y="524" type="line"/>
      <point x="74" y="735" type="line"/>
      <point x="715" y="176" type="line"/>
      <point x="720" y="-35" type="line"/>
    </contour>
    <contour>
      <point x="557" y="700" type="line"/>
      <point x="720" y="700" type="line"/>
      <point x="720" y="-35" type="line"/>
      <point x="557" y="150" type="line"/>
    </contour>
    <contour>
      <point x="74" y="735" type="line"/>
      <point x="237" y="550" type="line"/>
      <point x="237" y="0" type="line"/>
      <point x="74" y="0" type="line"/>
    </contour>
  </outline>
</glyph>
<glyph name="Z" format="1">
  <advance width="620"/>
  <unicode hex="005A"/>
  <outline>
    <contour>
      <point x="57" y="548" type="line"/>
      <point x="57" y="700" type="line"/>
      <point x="606" y="700" type="line"/>
      <point x="274" y="146" type="line"/>
      <point x="570" y="146" type="line"/>
      <point x="570" y="0" type="line"/>
      <point x="8" y="0" type="line"/>
      <point x="336" y="548" type="line"/>
    </contour>
  </outline>
</glyph>
<glyph name="c" format="1">
  <advance width="493"/>
  <unicode hex="0063"/>
  <outline>
    <contour>
      <point x="186" y="230" type="curve" smooth="yes"/>
      <point x="186" y="156"/>
      <point x="240" y="110"/>
      <point x="308" y="110" type="curve" smooth="yes"/>
      <point x="363" y="110"/>
      <point x="416" y="135"/>
      <point x="444" y="179" type="curve"/>
      <point x="444" y="32" type="line"/>
      <point x="412" y="6"/>
      <point x="366" y="-10"/>
      <point x="296" y="-10" type="curve" smooth="yes"/>
      <point x="142" y="-10"/>
      <point x="30" y="84"/>
      <point x="30" y="230" type="curve" smooth="yes"/>
      <point x="30" y="376"/>
      <point x="142" y="470"/>
      <point x="296" y="470" type="curve" smooth="yes"/>
      <point x="366" y="470"/>
      <point x="412" y="452"/>
      <point x="444" y="430" type="curve"/>
      <point x="444" y="282" type="line"/>
      <point x="416" y="326"/>
      <point x="357" y="350"/>
      <point x="308" y="350" type="curve" smooth="yes"/>
      <point x="240" y="350"/>
      <point x="186" y="298"/>
    </contour>
  </outline>
</glyph>
<glyph name="f" format="1">
  <advance width="344"/>
  <unicode hex="0066"/>
  <outline>
    <contour>
      <point x="18" y="460" type="line"/>
      <point x="332" y="460" type="line"/>
      <point x="332" y="335" type="line"/>
      <point x="18" y="335" type="line"/>
    </contour>
    <contour>
      <point x="316" y="634" type="line"/>
      <point x="302" y="652"/>
      <point x="288" y="660"/>
      <point x="270" y="660" type="curve" smooth="yes"/>
      <point x="240" y="660"/>
      <point x="222" y="639"/>
      <point x="222" y="592" type="curve" smooth="yes"/>
      <point x="222" y="0" type="line"/>
      <point x="76" y="0" type="line"/>
      <point x="76" y="630" type="line" smooth="yes"/>
      <point x="76" y="732"/>
      <point x="134" y="796"/>
      <point x="249" y="796" type="curve" smooth="yes"/>
      <point x="317" y="796"/>
      <point x="354" y="766"/>
      <point x="376" y="746" type="curve"/>
    </contour>
  </outline>
</glyph>
<glyph name="i" format="1">
  <advance width="276"/>
  <unicode hex="0069"/>
  <outline>
    <contour>
      <point x="50" y="632" type="curve" smooth="yes"/>
      <point x="50" y="680"/>
      <point x="89" y="714"/>
      <point x="138" y="714" type="curve" smooth="yes"/>
      <point x="187" y="714"/>
      <point x="226" y="680"/>
      <point x="226" y="632" type="curve" smooth="yes"/>
      <point x="226" y="584"/>
      <point x="187" y="550"/>
      <point x="138" y="550" type="curve" smooth="yes"/>
      <point x="89" y="550"/>
      <point x="50" y="584"/>
    </contour>
    <contour>
      <point x="64" y="460" type="line"/>
      <point x="211" y="460" type="line"/>
      <point x="211" y="0" type="line"/>
      <point x="64" y="0" type="line"/>
    </contour>
  </outline>
</glyph>
<glyph name="n" format="1">
  <advance width="575"/>
  <unicode hex="006E"/>
  <outline>
    <contour>
      <point x="212" y="460" type="line"/>
      <point x="212" y="0" type="line"/>
      <point x="60" y="0" type="line"/>
      <point x="60" y="460" type="line"/>
    </contour>
    <contour>
      <point x="358" y="280" type="line" smooth="yes"/>
      <point x="358" y="334"/>
      <point x="341" y="364"/>
      <point x="291" y="364" type="curve" smooth="yes"/>
      <point x="243" y="364"/>
      <point x="212" y="334"/>
      <point x="212" y="280" type="curve"/>
      <point x="186" y="274" type="line"/>
      <point x="186" y="383"/>
      <point x="238" y="470"/>
      <point x="352" y="470" type="curve" smooth="yes"/>
      <point x="466" y="470"/>
      <point x="516" y="408"/>
      <point x="516" y="296" type="curve" smooth="yes"/>
      <point x="516" y="0" type="line"/>
      <point x="358" y="0" type="line"/>
    </contour>
  </outline>
</glyph>
<glyph name="r" format="1">
  <advance width="411"/>
  <unicode hex="0072"/>
  <outline>
    <contour>
      <point x="208" y="460" type="line"/>
      <point x="208" y="0" type="line"/>
      <point x="60" y="0" type="line"/>
      <point x="60" y="460" type="line"/>
    </contour>
    <contour>
      <point x="341" y="303" type="line"/>
      <point x="325" y="319"/>
      <point x="308" y="330"/>
      <point x="282" y="330" type="curve" smooth="yes"/>
      <point x="238" y="330"/>
      <point x="208" y="293"/>
      <point x="208" y="227" type="curve"/>
      <point x="172" y="280" type="line"/>
      <point x="172" y="389"/>
      <point x="246" y="471"/>
      <point x="324" y="471" type="curve" smooth="yes"/>
      <point x="357" y="471"/>
      <point x="391" y="456"/>
      <point x="407" y="433" type="curve"/>
    </contour>
  </outline>
</glyph>
<glyph name="s" format="1">
  <advance width="456"/>
  <unicode hex="0073"/>
  <outline>
    <contour>
      <point x="118" y="174" type="line"/>
      <point x="156" y="124"/>
      <point x="203" y="96"/>
      <point x="235" y="96" type="curve" smooth="yes"/>
      <point x="262" y="96"/>
      <point x="280" y="105"/>
      <point x="280" y="128" type="curve" smooth="yes"/>
      <point x="280" y="162"/>
      <point x="212" y="173"/>
      <point x="158" y="197" type="curve" smooth="yes"/>
      <point x="98" y="225"/>
      <point x="51" y="256"/>
      <point x="51" y="336" type="curve" smooth="yes"/>
      <point x="51" y="424"/>
      <point x="126" y="470"/>
      <point x="225" y="470" type="curve" smooth="yes"/>
      <point x="325" y="470"/>
      <point x="390" y="418"/>
      <point x="429" y="360" type="curve"/>
      <point x="343" y="294" type="line"/>
      <point x="311" y="334"/>
      <point x="262" y="365"/>
      <point x="225" y="365" type="curve" smooth="yes"/>
      <point x="203" y="365"/>
      <point x="187" y="355"/>
      <point x="187" y="335" type="curve" smooth="yes"/>
      <point x="187" y="298"/>
      <point x="248" y="292"/>
      <point x="306" y="270" type="curve" smooth="yes"/>
      <point x="371" y="245"/>
      <point x="432" y="210"/>
      <point x="432" y="130" type="curve" smooth="yes"/>
      <point x="432" y="24"/>
      <point x="347" y="-20"/>
      <point x="235" y="-20" type="curve" smooth="yes"/>
      <point x="157" y="-20"/>
      <point x="90" y="9"/>
      <point x="24" y="105" type="curve"/>
    </contour>
  </outline>
</glyph>
<glyph name="v" format="1">
  <advance width="527"/>
  <unicode hex="0076"/>
  <outline>
    <contour>
      <point x="-3" y="460" type="line"/>
      <point x="159" y="460" type="line"/>
      <point x="264" y="205" type="line"/>
      <point x="369" y="460" type="line"/>
      <point x="530" y="460" type="line"/>
      <point x="264" y="-54" type="line"/>
    </contour>
  </outline>
</glyph>
<glyph name="z" format="1">
  <advance width="522"/>
  <unicode hex="007A"/>
  <outline>
    <contour>
      <point x="256" y="322" type="line"/>
      <point x="58" y="322" type="line"/>
      <point x="58" y="460" type="line"/>
      <point x="508" y="460" type="line"/>
      <point x="278" y="138" type="line"/>
      <point x="475" y="138" type="line"/>
      <point x="475" y="0" type="line"/>
      <point x="15" y="0" type="line"/>
    </contour>
  </outline>
</glyph>
<glyph name="dieresis" format="1">
  <advance width="511"/>
  <unicode hex="00A8"/>
  <outline>
    <contour>
      <point x="283" y="632" type="curve" smooth="yes"/>
      <point x="283" y="682"/>
      <point x="323" y="724"/>
      <point x="378" y="724" type="curve" smooth="yes"/>
      <point x="433" y="724"/>
      <point x="472" y="682"/>
      <point x="472" y="632" type="curve" smooth="yes"/>
      <point x="472" y="582"/>
      <point x="433" y="540"/>
      <point x="378" y="540" type="curve" smooth="yes"/>
      <point x="323" y="540"/>
      <point x="283" y="582"/>
    </contour>
    <contour>
      <point x="40" y="632" type="curve" smooth="yes"/>
      <point x="40" y="682"/>
      <point x="79" y="724"/>
      <point x="134" y="724" type="curve" smooth="yes"/>
      <point x="189" y="724"/>
      <point x="228" y="682"/>
      <point x="228" y="632" type="curve" smooth="yes"/>
      <point x="228" y="582"/>
      <point x="189" y="540"/>
      <point x="134" y="540" type="curve" smooth="yes"/>
      <point x="79" y="540"/>
      <point x="40" y="582"/>
    </contour>
  </outline>
</glyph>
<glyph name="plusminus" format="1">
  <advance width="633"/>
  <unicode hex="00B1"/>
  <outline>
    <contour>
      <point x="65" y="6" type="line"/>
      <point x="65" y="136" type="line"/>
      <point x="569" y="136" type="line"/>
      <point x="569" y="6" type="line"/>
    </contour>
    <contour>
      <point x="65" y="332" type="line"/>
      <point x="65" y="468" type="line"/>
      <point x="569" y="468" type="line"/>
      <point x="569" y="332" type="line"/>
    </contour>
    <contour>
      <point x="240" y="620" type="line"/>
      <point x="394" y="620" type="line"/>
      <point x="394" y="181" type="line"/>
      <point x="240" y="181" type="line"/>
    </contour>
  </outline>
</glyph>
<glyph name="cedilla" format="1">
  <advance width="393"/>
  <unicode hex="00B8"/>
  <outline>
    <contour>
      <point x="184" y="71" type="line"/>
      <point x="294" y="68" type="line"/>
      <point x="188" y="-79" type="line"/>
      <point x="96" y="-124" type="line"/>
    </contour>
    <contour>
      <point x="336" y="-148" type="curve"/>
      <point x="238" y="-140" type="line"/>
      <point x="238" y="-114"/>
      <point x="209" y="-108"/>
      <point x="178" y="-108" type="curve" smooth="yes"/>
      <point x="168" y="-108"/>
      <point x="132" y="-109"/>
      <point x="96" y="-124" type="curve"/>
      <point x="160" y="-79" type="line"/>
      <point x="187" y="-54"/>
      <point x="212" y="-51"/>
      <point x="244" y="-51" type="curve" smooth="yes"/>
      <point x="284" y="-51"/>
      <point x="336" y="-82"/>
    </contour>
    <contour>
      <point x="336" y="-148" type="line"/>
      <point x="336" y="-220"/>
      <point x="267" y="-258"/>
      <point x="204" y="-258" type="curve" smooth="yes"/>
      <point x="148" y="-258"/>
      <point x="107" y="-248"/>
      <point x="60" y="-218" type="curve"/>
      <point x="106" y="-150" type="line"/>
      <point x="132" y="-168"/>
      <point x="164" y="-175"/>
      <point x="184" y="-175" type="curve" smooth="yes"/>
      <point x="218" y="-175"/>
      <point x="238" y="-164"/>
      <point x="238" y="-140" type="curve"/>
    </contour>
  </outline>
</glyph>
<glyph name="threequarters" format="1">
  <advance width="879"/>
  <unicode hex="00BE"/>
  <outline>
    <contour>
      <point x="694" y="700" type="line"/>
      <point x="790" y="700" type="line"/>
      <point x="270" y="0" type="line"/>
      <point x="174" y="0" type="line"/>
    </contour>
    <contour>
      <point x="162" y="484" type="curve"/>
      <point x="162" y="529" type="line"/>
      <point x="208" y="529"/>
      <point x="240" y="556"/>
      <point x="240" y="586" type="curve" smooth="yes"/>
      <point x="240" y="611"/>
      <point x="224" y="627"/>
      <point x="192" y="627" type="curve" smooth="yes"/>
      <point x="160" y="627"/>
      <point x="138" y="607"/>
      <point x="138" y="577" type="curve"/>
      <point x="44" y="577" type="line"/>
      <point x="44" y="651"/>
      <point x="102" y="708"/>
      <point x="192" y="708" type="curve" smooth="yes"/>
      <point x="286" y="708"/>
      <point x="340" y="656"/>
      <point x="340" y="592" type="curve" smooth="yes"/>
      <point x="340" y="520"/>
      <point x="262" y="484"/>
    </contour>
    <contour>
      <point x="188" y="270" type="curve" smooth="yes"/>
      <point x="86" y="270"/>
      <point x="26" y="340"/>
      <point x="26" y="414" type="curve"/>
      <point x="126" y="414" type="line"/>
      <point x="126" y="372"/>
      <point x="157" y="352"/>
      <point x="192" y="352" type="curve" smooth="yes"/>
      <point x="227" y="352"/>
      <point x="252" y="368"/>
      <point x="252" y="404" type="curve" smooth="yes"/>
      <point x="252" y="439"/>
      <point x="224" y="464"/>
      <point x="162" y="464" type="curve"/>
      <point x="162" y="515" type="line"/>
      <point x="273" y="515"/>
      <point x="352" y="479"/>
      <point x="352" y="394" type="curve" smooth="yes"/>
      <point x="352" y="321"/>
      <point x="291" y="270"/>
    </contour>
    <contour>
      <point x="464" y="74" type="line"/>
      <point x="548" y="148" type="line"/>
      <point x="734" y="148" type="line" smooth="yes"/>
      <point x="744" y="161" type="line" smooth="yes"/>
      <point x="850" y="161" type="line"/>
      <point x="850" y="74" type="line"/>
    </contour>
    <contour>
      <point x="567" y="104" type="line"/>
      <point x="464" y="74" type="line"/>
      <point x="708" y="420" type="line"/>
      <point x="784" y="420" type="line"/>
      <point x="784" y="0" type="line"/>
      <point x="678" y="0" type="line"/>
      <point x="678" y="96" type="line" smooth="yes"/>
      <point x="690" y="102" type="line" smooth="yes"/>
      <point x="690" y="274" type="line"/>
    </contour>
  </outline>
</glyph>
<glyph name="questiondown" format="1">
  <advance width="627"/>
  <unicode hex="00BF"/>
  <outline>
    <contour>
      <point x="428" y="641" type="curve" smooth="yes"/>
      <point x="428" y="597"/>
      <point x="389" y="558"/>
      <point x="334" y="558" type="curve" smooth="yes"/>
      <point x="279" y="558"/>
      <point x="239" y="597"/>
      <point x="239" y="641" type="curve" smooth="yes"/>
      <point x="239" y="685"/>
      <point x="279" y="724"/>
      <point x="334" y="724" type="curve" smooth="yes"/>
      <point x="389" y="724"/>
      <point x="428" y="685"/>
    </contour>
    <contour>
      <point x="416" y="320" type="line"/>
      <point x="262" y="320" type="line"/>
      <point x="272" y="499" type="line"/>
      <point x="396" y="499" type="line"/>
    </contour>
    <contour>
      <point x="206" y="200" type="curve" smooth="yes"/>
      <point x="206" y="142"/>
      <point x="248" y="108"/>
      <point x="319" y="108" type="curve" smooth="yes"/>
      <point x="379" y="108"/>
      <point x="439" y="140"/>
      <point x="477" y="196" type="curve"/>
      <point x="580" y="110" type="line"/>
      <point x="509" y="28"/>
      <point x="428" y="-20"/>
      <point x="309" y="-20" type="curve" smooth="yes"/>
      <point x="177" y="-20"/>
      <point x="54" y="62"/>
      <point x="54" y="200" type="curve" smooth="yes"/>
      <point x="54" y="350"/>
      <point x="218" y="422"/>
      <point x="333" y="422" type="curve"/>
      <point x="383" y="320" type="line"/>
      <point x="263" y="320"/>
      <point x="206" y="251"/>
    </contour>
  </outline>
</glyph>
<glyph name="Idieresis" format="1">
  <advance width="320"/>
  <unicode hex="00CF"/>
  <outline>
    <contour>
      <point x="74" y="700" type="line"/>
      <point x="246" y="700" type="line"/>
      <point x="246" y="0" type="line"/>
      <point x="74" y="0" type="line"/>
    </contour>
    <contour>
      <point x="188" y="868" type="curve" smooth="yes"/>
      <point x="188" y="918"/>
      <point x="227" y="961"/>
      <point x="282" y="961" type="curve" smooth="yes"/>
      <point x="337" y="961"/>
      <point x="377" y="918"/>
      <point x="377" y="868" type="curve" smooth="yes"/>
      <point x="377" y="818"/>
      <point x="337" y="776"/>
      <point x="282" y="776" type="curve" smooth="yes"/>
      <point x="227" y="776"/>
      <point x="188" y="818"/>
    </contour>
    <contour>
      <point x="-56" y="868" type="curve" smooth="yes"/>
      <point x="-56" y="918"/>
      <point x="-17" y="961"/>
      <point x="38" y="961" type="curve" smooth="yes"/>
      <point x="93" y="961"/>
      <point x="133" y="918"/>
      <point x="133" y="868" type="curve" smooth="yes"/>
      <point x="133" y="818"/>
      <point x="93" y="776"/>
      <point x="38" y="776" type="curve" smooth="yes"/>
      <point x="-17" y="776"/>
      <point x="-56" y="818"/>
    </contour>
  </outline>
</glyph>
<glyph name="Eth" format="1">
  <advance width="733"/>
  <unicode hex="00D0"/>
  <outline>
    <contour>
      <point x="186" y="550" type="line"/>
      <point x="186" y="700" type="line"/>
      <point x="324" y="700" type="line" smooth="yes"/>
      <point x="553" y="700"/>
      <point x="700" y="566"/>
      <point x="700" y="350" type="curve"/>
      <point x="524" y="350" type="line"/>
      <point x="524" y="500"/>
      <point x="426" y="550"/>
      <point x="318" y="550" type="curve" smooth="yes"/>
    </contour>
    <contour>
      <point x="324" y="0" type="curve" smooth="yes"/>
      <point x="186" y="0" type="line"/>
      <point x="186" y="150" type="line"/>
      <point x="318" y="150" type="line" smooth="yes"/>
      <point x="426" y="150"/>
      <point x="524" y="200"/>
      <point x="524" y="350" type="curve"/>
      <point x="700" y="350" type="line"/>
      <point x="700" y="134"/>
      <point x="553" y="0"/>
    </contour>
    <contour>
      <point x="74" y="700" type="line"/>
      <point x="248" y="700" type="line"/>
      <point x="248" y="0" type="line"/>
      <point x="74" y="0" type="line"/>
    </contour>
    <contour>
      <point x="6" y="302" type="line"/>
      <point x="6" y="402" type="line"/>
      <point x="356" y="402" type="line"/>
      <point x="356" y="302" type="line"/>
    </contour>
  </outline>
</glyph>
<glyph name="Odieresis" format="1">
  <advance width="821"/>
  <unicode hex="00D6"/>
  <outline>
    <contour>
      <point x="213" y="350" type="curve" smooth="yes"/>
      <point x="213" y="226"/>
      <point x="292" y="140"/>
      <point x="410" y="140" type="curve" smooth="yes"/>
      <point x="528" y="140"/>
      <point x="608" y="226"/>
      <point x="608" y="350" type="curve" smooth="yes"/>
      <point x="608" y="474"/>
      <point x="532" y="560"/>
      <point x="410" y="560" type="curve" smooth="yes"/>
      <point x="292" y="560"/>
      <point x="213" y="474"/>
    </contour>
    <contour>
      <point x="34" y="350" type="curve" smooth="yes"/>
      <point x="34" y="566"/>
      <point x="196" y="716"/>
      <point x="410" y="716" type="curve" smooth="yes"/>
      <point x="626" y="716"/>
      <point x="788" y="566"/>
      <point x="788" y="350" type="curve" smooth="yes"/>
      <point x="788" y="134"/>
      <point x="630" y="-22"/>
      <point x="410" y="-22" type="curve" smooth="yes"/>
      <point x="190" y="-22"/>
      <point x="34" y="134"/>
    </contour>
    <contour>
      <point x="448" y="818" type="curve" smooth="yes"/>
      <point x="448" y="868"/>
      <point x="487" y="911"/>
      <point x="542" y="911" type="curve" smooth="yes"/>
      <point x="597" y="911"/>
      <point x="636" y="868"/>
      <point x="636" y="818" type="curve" smooth="yes"/>
      <point x="636" y="768"/>
      <point x="597" y="726"/>
      <point x="542" y="726" type="curve" smooth="yes"/>
      <point x="487" y="726"/>
      <point x="448" y="768"/>
    </contour>
    <contour>
      <point x="204" y="818" type="curve" smooth="yes"/>
      <point x="204" y="868"/>
      <point x="243" y="911"/>
      <point x="298" y="911" type="curve" smooth="yes"/>
      <point x="353" y="911"/>
      <point x="392" y="868"/>
      <point x="392" y="818" type="curve" smooth="yes"/>
      <point x="392" y="768"/>
      <point x="353" y="726"/>
      <point x="298" y="726" type="curve" smooth="yes"/>
      <point x="243" y="726"/>
      <point x="204" y="768"/>
    </contour>
  </outline>
</glyph>
<glyph name="Udieresis" format="1">
  <advance width="701"/>
  <unicode hex="00DC"/>
  <outline>
    <contour>
      <point x="68" y="700" type="line"/>
      <point x="238" y="700" type="line"/>
      <point x="238" y="242" type="line" smooth="yes"/>
      <point x="238" y="171"/>
      <point x="275" y="123"/>
      <point x="350" y="123" type="curve" smooth="yes"/>
      <point x="425" y="123"/>
      <point x="463" y="171"/>
      <point x="463" y="242" type="curve" smooth="yes"/>
      <point x="463" y="700" type="line"/>
      <point x="632" y="700" type="line"/>
      <point x="632" y="230" type="line" smooth="yes"/>
      <point x="632" y="54"/>
      <point x="508" y="-29"/>
      <point x="350" y="-29" type="curve" smooth="yes"/>
      <point x="192" y="-29"/>
      <point x="68" y="54"/>
      <point x="68" y="230" type="curve" smooth="yes"/>
    </contour>
    <contour>
      <point x="391" y="868" type="curve" smooth="yes"/>
      <point x="391" y="918"/>
      <point x="431" y="961"/>
      <point x="486" y="961" type="curve" smooth="yes"/>
      <point x="541" y="961"/>
      <point x="580" y="918"/>
      <point x="580" y="868" type="curve" smooth="yes"/>
      <point x="580" y="818"/>
      <point x="541" y="776"/>
      <point x="486" y="776" type="curve" smooth="yes"/>
      <point x="431" y="776"/>
      <point x="391" y="818"/>
    </contour>
    <contour>
      <point x="121" y="868" type="curve" smooth="yes"/>
      <point x="121" y="918"/>
      <point x="161" y="961"/>
      <point x="216" y="961" type="curve" smooth="yes"/>
      <point x="271" y="961"/>
      <point x="310" y="918"/>
      <point x="310" y="868" type="curve" smooth="yes"/>
      <point x="310" y="818"/>
      <point x="271" y="776"/>
      <point x="216" y="776" type="curve" smooth="yes"/>
      <point x="161" y="776"/>
      <point x="121" y="818"/>
    </contour>
  </outline>
</glyph>
<glyph name="ae" format="1">
  <advance width="896"/>
  <unicode hex="00E6"/>
  <outline>
    <contour>
      <point x="176" y="138" type="curve" smooth="yes"/>
      <point x="176" y="104"/>
      <point x="202" y="89"/>
      <point x="242" y="89" type="curve" smooth="yes"/>
      <point x="297" y="89"/>
      <point x="345" y="112"/>
      <point x="345" y="186" type="curve"/>
      <point x="416" y="130" type="line"/>
      <point x="416" y="41"/>
      <point x="344" y="-10"/>
      <point x="218" y="-10" type="curve" smooth="yes"/>
      <point x="96" y="-10"/>
      <point x="24" y="41"/>
      <point x="24" y="128" type="curve" smooth="yes"/>
      <point x="24" y="222"/>
      <point x="105" y="279"/>
      <point x="223" y="279" type="curve" smooth="yes"/>
      <point x="292" y="279"/>
      <point x="358" y="252"/>
      <point x="378" y="230" type="curve"/>
      <point x="378" y="158" type="line"/>
      <point x="344" y="184"/>
      <point x="310" y="197"/>
      <point x="258" y="197" type="curve" smooth="yes"/>
      <point x="206" y="197"/>
      <point x="176" y="174"/>
    </contour>
    <contour>
      <point x="118" y="318" type="curve"/>
      <point x="66" y="420" type="line"/>
      <point x="119" y="445"/>
      <point x="193" y="473"/>
      <point x="276" y="473" type="curve" smooth="yes"/>
      <point x="400" y="473"/>
      <point x="440" y="420"/>
      <point x="440" y="324" type="curve" smooth="yes"/>
      <point x="440" y="130" type="line"/>
      <point x="345" y="130" type="line"/>
      <point x="345" y="290" type="line" smooth="yes"/>
      <point x="345" y="329"/>
      <point x="314" y="358"/>
      <point x="264" y="358" type="curve" smooth="yes"/>
      <point x="198" y="358"/>
      <point x="140" y="331"/>
    </contour>
    <contour>
      <point x="418" y="198" type="line"/>
      <point x="418" y="282" type="line"/>
      <point x="844" y="282" type="line"/>
      <point x="860" y="198" type="line"/>
    </contour>
    <contour>
      <point x="702" y="244" type="line" smooth="yes"/>
      <point x="702" y="324"/>
      <point x="675" y="369"/>
      <point x="610" y="369" type="curve" smooth="yes"/>
      <point x="549" y="369"/>
      <point x="509" y="328"/>
      <point x="509" y="254" type="curve"/>
      <point x="507" y="230" type="line"/>
      <point x="507" y="136"/>
      <point x="555" y="100"/>
      <point x="614" y="100" type="curve" smooth="yes"/>
      <point x="668" y="100"/>
      <point x="706" y="120"/>
      <point x="728" y="158" type="curve"/>
      <point x="863" y="126" type="line"/>
      <point x="817" y="44"/>
      <point x="748" y="-10"/>
      <point x="616" y="-10" type="curve" smooth="yes"/>
      <point x="448" y="-10"/>
      <point x="390" y="91"/>
      <point x="390" y="230" type="curve" smooth="yes"/>
      <point x="390" y="247"/>
      <point x="394" y="263"/>
      <point x="397" y="279" type="curve" smooth="yes"/>
      <point x="416" y="392"/>
      <point x="498" y="470"/>
      <point x="636" y="470" type="curve" smooth="yes"/>
      <point x="771" y="470"/>
      <point x="862" y="382"/>
      <point x="862" y="237" type="curve" smooth="yes"/>
      <point x="862" y="229"/>
      <point x="862" y="214"/>
      <point x="860" y="198" type="curve"/>
      <point x="702" y="218" type="line"/>
    </contour>
  </outline>
</glyph>
<glyph name="ccedilla" format="1">
  <advance width="493"/>
  <unicode hex="00E7"/>
  <outline>
    <contour>
      <point x="186" y="230" type="curve" smooth="yes"/>
      <point x="186" y="156"/>
      <point x="240" y="110"/>
      <point x="308" y="110" type="curve" smooth="yes"/>
      <point x="363" y="110"/>
      <point x="416" y="135"/>
      <point x="444" y="179" type="curve"/>
      <point x="444" y="32" type="line"/>
      <point x="412" y="6"/>
      <point x="366" y="-10"/>
      <point x="296" y="-10" type="curve" smooth="yes"/>
      <point x="142" y="-10"/>
      <point x="30" y="84"/>
      <point x="30" y="230" type="curve" smooth="yes"/>
      <point x="30" y="376"/>
      <point x="142" y="470"/>
      <point x="296" y="470" type="curve" smooth="yes"/>
      <point x="366" y="470"/>
      <point x="412" y="452"/>
      <point x="444" y="430" type="curve"/>
      <point x="444" y="282" type="line"/>
      <point x="416" y="326"/>
      <point x="357" y="350"/>
      <point x="308" y="350" type="curve" smooth="yes"/>
      <point x="240" y="350"/>
      <point x="186" y="298"/>
    </contour>
    <contour>
      <point x="231" y="85" type="line"/>
      <point x="341" y="82" type="line"/>
      <point x="236" y="-65" type="line"/>
      <point x="143" y="-110" type="line"/>
    </contour>
    <contour>
      <point x="383" y="-134" type="curve"/>
      <point x="286" y="-126" type="line"/>
      <point x="286" y="-100"/>
      <point x="257" y="-94"/>
      <point x="226" y="-94" type="curve" smooth="yes"/>
      <point x="216" y="-94"/>
      <point x="179" y="-95"/>
      <point x="143" y="-110" type="curve"/>
      <point x="208" y="-66" type="line"/>
      <point x="235" y="-41"/>
      <point x="260" y="-37"/>
      <point x="292" y="-37" type="curve" smooth="yes"/>
      <point x="332" y="-37"/>
      <point x="383" y="-68"/>
    </contour>
    <contour>
      <point x="383" y="-134" type="line"/>
      <point x="383" y="-206"/>
      <point x="315" y="-244"/>
      <point x="252" y="-244" type="curve" smooth="yes"/>
      <point x="196" y="-244"/>
      <point x="155" y="-234"/>
      <point x="108" y="-204" type="curve"/>
      <point x="154" y="-136" type="line"/>
      <point x="180" y="-154"/>
      <point x="212" y="-161"/>
      <point x="232" y="-161" type="curve" smooth="yes"/>
      <point x="266" y="-161"/>
      <point x="286" y="-150"/>
      <point x="286" y="-126" type="curve"/>
    </contour>
  </outline>
</glyph>
<glyph name="eacute" format="1">
  <advance width="573"/>
  <unicode hex="00E9"/>
  <outline>
    <contour>
      <point x="96" y="198" type="line"/>
      <point x="96" y="282" type="line"/>
      <point x="522" y="282" type="line"/>
      <point x="538" y="198" type="line"/>
    </contour>
    <contour>
      <point x="380" y="244" type="line" smooth="yes"/>
      <point x="380" y="324"/>
      <point x="353" y="369"/>
      <point x="288" y="369" type="curve" smooth="yes"/>
      <point x="227" y="369"/>
      <point x="187" y="328"/>
      <point x="187" y="254" type="curve"/>
      <point x="185" y="230" type="line"/>
      <point x="185" y="136"/>
      <point x="232" y="100"/>
      <point x="291" y="100" type="curve" smooth="yes"/>
      <point x="345" y="100"/>
      <point x="383" y="120"/>
      <point x="405" y="158" type="curve"/>
      <point x="541" y="126" type="line"/>
      <point x="495" y="44"/>
      <point x="426" y="-10"/>
      <point x="294" y="-10" type="curve" smooth="yes"/>
      <point x="126" y="-10"/>
      <point x="32" y="91"/>
      <point x="32" y="230" type="curve" smooth="yes"/>
      <point x="32" y="247"/>
      <point x="33" y="263"/>
      <point x="36" y="279" type="curve" smooth="yes"/>
      <point x="55" y="392"/>
      <point x="141" y="470"/>
      <point x="291" y="470" type="curve" smooth="yes"/>
      <point x="452" y="470"/>
      <point x="540" y="382"/>
      <point x="540" y="237" type="curve" smooth="yes"/>
      <point x="540" y="229"/>
      <point x="540" y="214"/>
      <point x="538" y="198" type="curve"/>
      <point x="380" y="218" type="line"/>
    </contour>
    <contour>
      <point x="451" y="688" type="line"/>
      <point x="271" y="538" type="line"/>
      <point x="186" y="580" type="line"/>
      <point x="336" y="740" type="line"/>
    </contour>
  </outline>
</glyph>
<glyph name="edieresis" format="1">
  <advance width="573"/>
  <unicode hex="00EB"/>
  <outline>
    <contour>
      <point x="96" y="198" type="line"/>
      <point x="96" y="282" type="line"/>
      <point x="522" y="282" type="line"/>
      <point x="538" y="198" type="line"/>
    </contour>
    <contour>
      <point x="380" y="244" type="line" smooth="yes"/>
      <point x="380" y="324"/>
      <point x="353" y="369"/>
      <point x="288" y="369" type="curve" smooth="yes"/>
      <point x="227" y="369"/>
      <point x="187" y="328"/>
      <point x="187" y="254" type="curve"/>
      <point x="185" y="230" type="line"/>
      <point x="185" y="136"/>
      <point x="232" y="100"/>
      <point x="291" y="100" type="curve" smooth="yes"/>
      <point x="345" y="100"/>
      <point x="383" y="120"/>
      <point x="405" y="158" type="curve"/>
      <point x="541" y="126" type="line"/>
      <point x="495" y="44"/>
      <point x="426" y="-10"/>
      <point x="294" y="-10" type="curve" smooth="yes"/>
      <point x="126" y="-10"/>
      <point x="32" y="91"/>
      <point x="32" y="230" type="curve" smooth="yes"/>
      <point x="32" y="247"/>
      <point x="33" y="263"/>
      <point x="36" y="279" type="curve" smooth="yes"/>
      <point x="55" y="392"/>
      <point x="141" y="470"/>
      <point x="291" y="470" type="curve" smooth="yes"/>
      <point x="452" y="470"/>
      <point x="540" y="382"/>
      <point x="540" y="237" type="curve" smooth="yes"/>
      <point x="540" y="229"/>
      <point x="540" y="214"/>
      <point x="538" y="198" type="curve"/>
      <point x="380" y="218" type="line"/>
    </contour>
    <contour>
      <point x="318" y="623" type="curve" smooth="yes"/>
      <point x="318" y="673"/>
      <point x="358" y="716"/>
      <point x="413" y="716" type="curve" smooth="yes"/>
      <point x="468" y="716"/>
      <point x="508" y="673"/>
      <point x="508" y="623" type="curve" smooth="yes"/>
      <point x="508" y="573"/>
      <point x="468" y="530"/>
      <point x="413" y="530" type="curve" smooth="yes"/>
      <point x="358" y="530"/>
      <point x="318" y="573"/>
    </contour>
    <contour>
      <point x="75" y="623" type="curve" smooth="yes"/>
      <point x="75" y="673"/>
      <point x="115" y="716"/>
      <point x="170" y="716" type="curve" smooth="yes"/>
      <point x="225" y="716"/>
      <point x="264" y="673"/>
      <point x="264" y="623" type="curve" smooth="yes"/>
      <point x="264" y="573"/>
      <point x="225" y="530"/>
      <point x="170" y="530" type="curve" smooth="yes"/>
      <point x="115" y="530"/>
      <point x="75" y="573"/>
    </contour>
  </outline>
</glyph>
<glyph name="eth" format="1">
  <advance width="669"/>
  <unicode hex="00F0"/>
  <outline>
    <contour>
      <point x="452" y="246" type="curve" smooth="yes"/>
      <point x="452" y="317"/>
      <point x="402" y="365"/>
      <point x="335" y="365" type="curve" smooth="yes"/>
      <point x="268" y="365"/>
      <point x="218" y="317"/>
      <point x="218" y="246" type="curve" smooth="yes"/>
      <point x="218" y="175"/>
      <point x="268" y="128"/>
      <point x="335" y="128" type="curve" smooth="yes"/>
      <point x="402" y="128"/>
      <point x="452" y="175"/>
    </contour>
    <contour>
      <point x="336" y="697" type="line"/>
      <point x="538" y="440" type="line" smooth="yes"/>
      <point x="584" y="384"/>
      <point x="620" y="322"/>
      <point x="620" y="246" type="curve" smooth="yes"/>
      <point x="620" y="74"/>
      <point x="492" y="-16"/>
      <point x="335" y="-16" type="curve" smooth="yes"/>
      <point x="178" y="-16"/>
      <point x="50" y="74"/>
      <point x="50" y="246" type="curve" smooth="yes"/>
      <point x="50" y="388"/>
      <point x="162" y="474"/>
      <point x="266" y="474" type="curve" smooth="yes"/>
      <point x="316" y="474"/>
      <point x="346" y="465"/>
      <point x="384" y="429" type="curve"/>
      <point x="348" y="444" type="line"/>
      <point x="122" y="697" type="line"/>
    </contour>
    <contour>
      <point x="136" y="520" type="line"/>
      <point x="136" y="598" type="line"/>
      <point x="574" y="598" type="line"/>
      <point x="574" y="520" type="line"/>
    </contour>
  </outline>
</glyph>
<glyph name="ntilde" format="1">
  <advance width="575"/>
  <unicode hex="00F1"/>
  <outline>
    <contour>
      <point x="212" y="460" type="line"/>
      <point x="212" y="0" type="line"/>
      <point x="60" y="0" type="line"/>
      <point x="60" y="460" type="line"/>
    </contour>
    <contour>
      <point x="358" y="280" type="line" smooth="yes"/>
      <point x="358" y="334"/>
      <point x="341" y="364"/>
      <point x="291" y="364" type="curve" smooth="yes"/>
      <point x="243" y="364"/>
      <point x="212" y="334"/>
      <point x="212" y="280" type="curve"/>
      <point x="182" y="274" type="line"/>
      <point x="182" y="383"/>
      <point x="238" y="470"/>
      <point x="352" y="470" type="curve" smooth="yes"/>
      <point x="466" y="470"/>
      <point x="516" y="408"/>
      <point x="516" y="296" type="curve" smooth="yes"/>
      <point x="516" y="0" type="line"/>
      <point x="358" y="0" type="line"/>
    </contour>
    <contour>
      <point x="92" y="596" type="line"/>
      <point x="102" y="645"/>
      <point x="147" y="691"/>
      <point x="211" y="691" type="curve" smooth="yes"/>
      <point x="277" y="691"/>
      <point x="291" y="639"/>
      <point x="347" y="639" type="curve" smooth="yes"/>
      <point x="373" y="639"/>
      <point x="393" y="660"/>
      <point x="413" y="692" type="curve"/>
      <point x="484" y="618" type="line"/>
      <point x="468" y="581"/>
      <point x="412" y="532"/>
      <point x="350" y="532" type="curve" smooth="yes"/>
      <point x="295" y="532"/>
      <point x="260" y="586"/>
      <point x="210" y="586" type="curve" smooth="yes"/>
      <point x="172" y="586"/>
      <point x="163" y="549"/>
      <point x="163" y="534" type="curve"/>
    </contour>
  </outline>
</glyph>
<glyph name="oacute" format="1">
  <advance width="589"/>
  <unicode hex="00F3"/>
  <outline>
    <contour>
      <point x="32" y="230" type="curve" smooth="yes"/>
      <point x="32" y="376"/>
      <point x="145" y="470"/>
      <point x="295" y="470" type="curve" smooth="yes"/>
      <point x="445" y="470"/>
      <point x="558" y="376"/>
      <point x="558" y="230" type="curve" smooth="yes"/>
      <point x="558" y="84"/>
      <point x="445" y="-10"/>
      <point x="295" y="-10" type="curve" smooth="yes"/>
      <point x="145" y="-10"/>
      <point x="32" y="84"/>
    </contour>
    <contour>
      <point x="188" y="230" type="curve" smooth="yes"/>
      <point x="188" y="159"/>
      <point x="236" y="115"/>
      <point x="295" y="115" type="curve" smooth="yes"/>
      <point x="354" y="115"/>
      <point x="402" y="159"/>
      <point x="402" y="230" type="curve" smooth="yes"/>
      <point x="402" y="301"/>
      <point x="354" y="346"/>
      <point x="295" y="346" type="curve" smooth="yes"/>
      <point x="236" y="346"/>
      <point x="188" y="301"/>
    </contour>
    <contour>
      <point x="455" y="688" type="line"/>
      <point x="275" y="538" type="line"/>
      <point x="189" y="580" type="line"/>
      <point x="339" y="740" type="line"/>
    </contour>
  </outline>
</glyph>
<glyph name="ocircumflex" format="1">
  <advance width="589"/>
  <unicode hex="00F4"/>
  <outline>
    <contour>
      <point x="32" y="230" type="curve" smooth="yes"/>
      <point x="32" y="376"/>
      <point x="145" y="470"/>
      <point x="295" y="470" type="curve" smooth="yes"/>
      <point x="445" y="470"/>
      <point x="558" y="376"/>
      <point x="558" y="230" type="curve" smooth="yes"/>
      <point x="558" y="84"/>
      <point x="445" y="-10"/>
      <point x="295" y="-10" type="curve" smooth="yes"/>
      <point x="145" y="-10"/>
      <point x="32" y="84"/>
    </contour>
    <contour>
      <point x="188" y="230" type="curve" smooth="yes"/>
      <point x="188" y="159"/>
      <point x="236" y="115"/>
      <point x="295" y="115" type="curve" smooth="yes"/>
      <point x="354" y="115"/>
      <point x="402" y="159"/>
      <point x="402" y="230" type="curve" smooth="yes"/>
      <point x="402" y="301"/>
      <point x="354" y="346"/>
      <point x="295" y="346" type="curve" smooth="yes"/>
      <point x="236" y="346"/>
      <point x="188" y="301"/>
    </contour>
    <contour>
      <point x="295" y="624" type="line"/>
      <point x="204" y="538" type="line"/>
      <point x="98" y="610" type="line"/>
      <point x="295" y="750" type="line"/>
      <point x="492" y="610" type="line"/>
      <point x="386" y="538" type="line"/>
    </contour>
  </outline>
</glyph>
<glyph name="odieresis" format="1">
  <advance width="589"/>
  <unicode hex="00F6"/>
  <outline>
    <contour>
      <point x="32" y="230" type="curve" smooth="yes"/>
      <point x="32" y="376"/>
      <point x="145" y="470"/>
      <point x="295" y="470" type="curve" smooth="yes"/>
      <point x="445" y="470"/>
      <point x="558" y="376"/>
      <point x="558" y="230" type="curve" smooth="yes"/>
      <point x="558" y="84"/>
      <point x="445" y="-10"/>
      <point x="295" y="-10" type="curve" smooth="yes"/>
      <point x="145" y="-10"/>
      <point x="32" y="84"/>
    </contour>
    <contour>
      <point x="188" y="230" type="curve" smooth="yes"/>
      <point x="188" y="159"/>
      <point x="236" y="115"/>
      <point x="295" y="115" type="curve" smooth="yes"/>
      <point x="354" y="115"/>
      <point x="402" y="159"/>
      <point x="402" y="230" type="curve" smooth="yes"/>
      <point x="402" y="301"/>
      <point x="354" y="346"/>
      <point x="295" y="346" type="curve" smooth="yes"/>
      <point x="236" y="346"/>
      <point x="188" y="301"/>
    </contour>
    <contour>
      <point x="322" y="634" type="curve" smooth="yes"/>
      <point x="322" y="684"/>
      <point x="361" y="727"/>
      <point x="416" y="727" type="curve" smooth="yes"/>
      <point x="471" y="727"/>
      <point x="511" y="684"/>
      <point x="511" y="634" type="curve" smooth="yes"/>
      <point x="511" y="584"/>
      <point x="471" y="542"/>
      <point x="416" y="542" type="curve" smooth="yes"/>
      <point x="361" y="542"/>
      <point x="322" y="584"/>
    </contour>
    <contour>
      <point x="78" y="634" type="curve" smooth="yes"/>
      <point x="78" y="684"/>
      <point x="118" y="727"/>
      <point x="173" y="727" type="curve" smooth="yes"/>
      <point x="228" y="727"/>
      <point x="268" y="684"/>
      <point x="268" y="634" type="curve" smooth="yes"/>
      <point x="268" y="584"/>
      <point x="228" y="542"/>
      <point x="173" y="542" type="curve" smooth="yes"/>
      <point x="118" y="542"/>
      <point x="78" y="584"/>
    </contour>
  </outline>
</glyph>
<glyph name="ugrave" format="1">
  <advance width="575"/>
  <unicode hex="00F9"/>
  <outline>
    <contour>
      <point x="364" y="0" type="line"/>
      <point x="364" y="460" type="line"/>
      <point x="516" y="460" type="line"/>
      <point x="516" y="0" type="line"/>
    </contour>
    <contour>
      <point x="218" y="180" type="line" smooth="yes"/>
      <point x="218" y="126"/>
      <point x="234" y="96"/>
      <point x="284" y="96" type="curve" smooth="yes"/>
      <point x="332" y="96"/>
      <point x="364" y="126"/>
      <point x="364" y="180" type="curve"/>
      <point x="394" y="186" type="line"/>
      <point x="394" y="77"/>
      <point x="338" y="-10"/>
      <point x="224" y="-10" type="curve" smooth="yes"/>
      <point x="110" y="-10"/>
      <point x="60" y="52"/>
      <point x="60" y="164" type="curve" smooth="yes"/>
      <point x="60" y="460" type="line"/>
      <point x="218" y="460" type="line"/>
    </contour>
    <contour>
      <point x="142" y="688" type="line"/>
      <point x="258" y="740" type="line"/>
      <point x="408" y="580" type="line"/>
      <point x="322" y="538" type="line"/>
    </contour>
  </outline>
</glyph>
<glyph name="ucircumflex" format="1">
  <advance width="575"/>
  <unicode hex="00FB"/>
  <outline>
    <contour>
      <point x="364" y="0" type="line"/>
      <point x="364" y="460" type="line"/>
      <point x="516" y="460" type="line"/>
      <point x="516" y="0" type="line"/>
    </contour>
    <contour>
      <point x="218" y="180" type="line" smooth="yes"/>
      <point x="218" y="126"/>
      <point x="234" y="96"/>
      <point x="284" y="96" type="curve" smooth="yes"/>
      <point x="332" y="96"/>
      <point x="364" y="126"/>
      <point x="364" y="180" type="curve"/>
      <point x="394" y="186" type="line"/>
      <point x="394" y="77"/>
      <point x="338" y="-10"/>
      <point x="224" y="-10" type="curve" smooth="yes"/>
      <point x="110" y="-10"/>
      <point x="60" y="52"/>
      <point x="60" y="164" type="curve" smooth="yes"/>
      <point x="60" y="460" type="line"/>
      <point x="218" y="460" type="line"/>
    </contour>
    <contour>
      <point x="287" y="624" type="line"/>
      <point x="196" y="538" type="line"/>
      <point x="90" y="610" type="line"/>
      <point x="287" y="750" type="line"/>
      <point x="484" y="610" type="line"/>
      <point x="378" y="538" type="line"/>
    </contour>
  </outline>
</glyph>
<glyph name="yacute" format="1">
  <advance width="521"/>
  <unicode hex="00FD"/>
  <outline>
    <contour>
      <point x="530" y="460" type="line"/>
      <point x="230" y="-220" type="line"/>
      <point x="78" y="-220" type="line"/>
      <point x="190" y="37" type="line"/>
      <point x="-10" y="460" type="line"/>
      <point x="158" y="460" type="line"/>
      <point x="306" y="90" type="line"/>
      <point x="228" y="92" type="line"/>
      <point x="375" y="460" type="line"/>
    </contour>
    <contour>
      <point x="422" y="688" type="line"/>
      <point x="242" y="538" type="line"/>
      <point x="156" y="580" type="line"/>
      <point x="306" y="740" type="line"/>
    </contour>
  </outline>
</glyph>
<glyph name="thorn" format="1">
  <advance width="616"/>
  <unicode hex="00FE"/>
  <outline>
    <contour>
      <point x="210" y="405" type="line"/>
      <point x="180" y="-220" type="line"/>
      <point x="58" y="155" type="line"/>
      <point x="88" y="780" type="line"/>
    </contour>
    <contour>
      <point x="585" y="230" type="curve" smooth="yes"/>
      <point x="585" y="74"/>
      <point x="478" y="-10"/>
      <point x="366" y="-10" type="curve" smooth="yes"/>
      <point x="251" y="-10"/>
      <point x="167" y="81"/>
      <point x="167" y="230" type="curve" smooth="yes"/>
      <point x="167" y="379"/>
      <point x="251" y="470"/>
      <point x="366" y="470" type="curve" smooth="yes"/>
      <point x="478" y="470"/>
      <point x="585" y="386"/>
    </contour>
    <contour>
      <point x="426" y="230" type="curve" smooth="yes"/>
      <point x="426" y="302"/>
      <point x="376" y="348"/>
      <point x="316" y="348" type="curve" smooth="yes"/>
      <point x="265" y="348"/>
      <point x="210" y="305"/>
      <point x="210" y="230" type="curve" smooth="yes"/>
      <point x="210" y="155"/>
      <point x="265" y="112"/>
      <point x="316" y="112" type="curve" smooth="yes"/>
      <point x="376" y="112"/>
      <point x="426" y="158"/>
    </contour>
  </outline>
</glyph>
<glyph name="Ebreve" format="1">
  <advance width="603"/>
  <unicode hex="0114"/>
  <outline>
    <contour>
      <point x="186" y="0" type="line"/>
      <point x="186" y="140" type="line"/>
      <point x="540" y="140" type="line"/>
      <point x="540" y="0" type="line"/>
    </contour>
    <contour>
      <point x="186" y="560" type="line"/>
      <point x="186" y="700" type="line"/>
      <point x="540" y="700" type="line"/>
      <point x="540" y="560" type="line"/>
    </contour>
    <contour>
      <point x="186" y="300" type="line"/>
      <point x="186" y="436" type="line"/>
      <point x="520" y="436" type="line"/>
      <point x="520" y="300" type="line"/>
    </contour>
    <contour>
      <point x="74" y="700" type="line"/>
      <point x="237" y="700" type="line"/>
      <point x="237" y="0" type="line"/>
      <point x="74" y="0" type="line"/>
    </contour>
    <contour>
      <point x="142" y="922" type="curve"/>
      <point x="241" y="922" type="line"/>
      <point x="241" y="886"/>
      <point x="267" y="863"/>
      <point x="306" y="863" type="curve" smooth="yes"/>
      <point x="345" y="863"/>
      <point x="372" y="886"/>
      <point x="372" y="922" type="curve"/>
      <point x="470" y="922" type="line"/>
      <point x="470" y="840"/>
      <point x="411" y="776"/>
      <point x="306" y="776" type="curve" smooth="yes"/>
      <point x="201" y="776"/>
      <point x="142" y="840"/>
    </contour>
  </outline>
</glyph>
<glyph name="uni0122" format="1">
  <advance width="814"/>
  <unicode hex="0122"/>
  <outline>
    <contour>
      <point x="420" y="253" type="line"/>
      <point x="420" y="383" type="line"/>
      <point x="775" y="383" type="line"/>
      <point x="686" y="253" type="line"/>
    </contour>
    <contour>
      <point x="775" y="383" type="line"/>
      <point x="787" y="161"/>
      <point x="656" y="-22"/>
      <point x="417" y="-22" type="curve" smooth="yes"/>
      <point x="194" y="-22"/>
      <point x="34" y="128"/>
      <point x="34" y="350" type="curve" smooth="yes"/>
      <point x="34" y="572"/>
      <point x="200" y="716"/>
      <point x="423" y="716" type="curve" smooth="yes"/>
      <point x="571" y="716"/>
      <point x="673" y="647"/>
      <point x="739" y="550" type="curve"/>
      <point x="588" y="472" type="line"/>
      <point x="556" y="527"/>
      <point x="505" y="568"/>
      <point x="423" y="568" type="curve" smooth="yes"/>
      <point x="306" y="568"/>
      <point x="211" y="488"/>
      <point x="211" y="350" type="curve" smooth="yes"/>
      <point x="211" y="212"/>
      <point x="300" y="125"/>
      <point x="423" y="125" type="curve" smooth="yes"/>
      <point x="579" y="125"/>
      <point x="624" y="245"/>
      <point x="624" y="380" type="curve"/>
    </contour>
    <contour>
      <point x="354" y="-82" type="line"/>
      <point x="506" y="-115" type="line"/>
      <point x="380" y="-365" type="line"/>
      <point x="266" y="-342" type="line"/>
    </contour>
  </outline>
</glyph>
<glyph name="ibreve" format="1">
  <advance width="276"/>
  <unicode hex="012D"/>
  <outline>
    <contour>
      <point x="64" y="460" type="line"/>
      <point x="211" y="460" type="line"/>
      <point x="211" y="0" type="line"/>
      <point x="64" y="0" type="line"/>
    </contour>
    <contour>
      <point x="-27" y="677" type="curve"/>
      <point x="72" y="677" type="line"/>
      <point x="72" y="641"/>
      <point x="99" y="618"/>
      <point x="138" y="618" type="curve" smooth="yes"/>
      <point x="177" y="618"/>
      <point x="202" y="641"/>
      <point x="202" y="677" type="curve"/>
      <point x="302" y="677" type="line"/>
      <point x="302" y="595"/>
      <point x="243" y="530"/>
      <point x="138" y="530" type="curve" smooth="yes"/>
      <point x="33" y="530"/>
      <point x="-27" y="595"/>
    </contour>
  </outline>
</glyph>
<glyph name="Idotaccent" format="1">
  <advance width="320"/>
  <unicode hex="0130"/>
  <outline>
    <contour>
      <point x="74" y="700" type="line"/>
      <point x="246" y="700" type="line"/>
      <point x="246" y="0" type="line"/>
      <point x="74" y="0" type="line"/>
    </contour>
    <contour>
      <point x="65" y="868" type="curve" smooth="yes"/>
      <point x="65" y="918"/>
      <point x="105" y="961"/>
      <point x="160" y="961" type="curve" smooth="yes"/>
      <point x="215" y="961"/>
      <point x="254" y="918"/>
      <point x="254" y="868" type="curve" smooth="yes"/>
      <point x="254" y="818"/>
      <point x="215" y="776"/>
      <point x="160" y="776" type="curve" smooth="yes"/>
      <point x="105" y="776"/>
      <point x="65" y="818"/>
    </contour>
  </outline>
</glyph>
<glyph name="uni0136" format="1">
  <advance width="700"/>
  <unicode hex="0136"/>
  <outline>
    <contour>
      <point x="74" y="700" type="line"/>
      <point x="250" y="700" type="line"/>
      <point x="250" y="0" type="line"/>
      <point x="74" y="0" type="line"/>
    </contour>
    <contour>
      <point x="487" y="700" type="line"/>
      <point x="686" y="700" type="line"/>
      <point x="402" y="372" type="line"/>
      <point x="701" y="0" type="line"/>
      <point x="496" y="0" type="line"/>
      <point x="200" y="367" type="line"/>
    </contour>
    <contour>
      <point x="330" y="-60" type="line"/>
      <point x="483" y="-92" type="line"/>
      <point x="356" y="-342" type="line"/>
      <point x="242" y="-319" type="line"/>
    </contour>
  </outline>
</glyph>
<glyph name="uni0146" format="1">
  <advance width="575"/>
  <unicode hex="0146"/>
  <outline>
    <contour>
      <point x="212" y="460" type="line"/>
      <point x="212" y="0" type="line"/>
      <point x="60" y="0" type="line"/>
      <point x="60" y="460" type="line"/>
    </contour>
    <contour>
      <point x="358" y="280" type="line" smooth="yes"/>
      <point x="358" y="334"/>
      <point x="341" y="364"/>
      <point x="291" y="364" type="curve" smooth="yes"/>
      <point x="243" y="364"/>
      <point x="212" y="334"/>
      <point x="212" y="280" type="curve"/>
      <point x="182" y="274" type="line"/>
      <point x="182" y="383"/>
      <point x="238" y="470"/>
      <point x="352" y="470" type="curve" smooth="yes"/>
      <point x="466" y="470"/>
      <point x="516" y="408"/>
      <point x="516" y="296" type="curve" smooth="yes"/>
      <point x="516" y="0" type="line"/>
      <point x="358" y="0" type="line"/>
    </contour>
    <contour>
      <point x="256" y="-60" type="line"/>
      <point x="407" y="-92" type="line"/>
      <point x="282" y="-342" type="line"/>
      <point x="168" y="-319" type="line"/>
    </contour>
  </outline>
</glyph>
<glyph name="omacron" format="1">
  <advance width="589"/>
  <unicode hex="014D"/>
  <outline>
    <contour>
      <point x="32" y="230" type="curve" smooth="yes"/>
      <point x="32" y="376"/>
      <point x="145" y="470"/>
      <point x="295" y="470" type="curve" smooth="yes"/>
      <point x="445" y="470"/>
      <point x="558" y="376"/>
      <point x="558" y="230" type="curve" smooth="yes"/>
      <point x="558" y="84"/>
      <point x="445" y="-10"/>
      <point x="295" y="-10" type="curve" smooth="yes"/>
      <point x="145" y="-10"/>
      <point x="32" y="84"/>
    </contour>
    <contour>
      <point x="188" y="230" type="curve" smooth="yes"/>
      <point x="188" y="159"/>
      <point x="236" y="115"/>
      <point x="295" y="115" type="curve" smooth="yes"/>
      <point x="354" y="115"/>
      <point x="402" y="159"/>
      <point x="402" y="230" type="curve" smooth="yes"/>
      <point x="402" y="301"/>
      <point x="354" y="346"/>
      <point x="295" y="346" type="curve" smooth="yes"/>
      <point x="236" y="346"/>
      <point x="188" y="301"/>
    </contour>
    <contour>
      <point x="109" y="530" type="line"/>
      <point x="109" y="662" type="line"/>
      <point x="480" y="662" type="line"/>
      <point x="480" y="530" type="line"/>
    </contour>
  </outline>
</glyph>
<glyph name="Ydieresis" format="1">
  <advance width="660"/>
  <unicode hex="0178"/>
  <outline>
    <contour>
      <point x="244" y="360" type="line"/>
      <point x="416" y="360" type="line"/>
      <point x="416" y="0" type="line"/>
      <point x="244" y="0" type="line"/>
    </contour>
    <contour>
      <point x="466" y="700" type="line"/>
      <point x="662" y="700" type="line"/>
      <point x="330" y="138" type="line"/>
      <point x="-2" y="700" type="line"/>
      <point x="194" y="700" type="line"/>
      <point x="330" y="437" type="line"/>
    </contour>
    <contour>
      <point x="370" y="868" type="curve" smooth="yes"/>
      <point x="370" y="918"/>
      <point x="409" y="961"/>
      <point x="464" y="961" type="curve" smooth="yes"/>
      <point x="519" y="961"/>
      <point x="559" y="918"/>
      <point x="559" y="868" type="curve" smooth="yes"/>
      <point x="559" y="818"/>
      <point x="519" y="776"/>
      <point x="464" y="776" type="curve" smooth="yes"/>
      <point x="409" y="776"/>
      <point x="370" y="818"/>
    </contour>
    <contour>
      <point x="102" y="868" type="curve" smooth="yes"/>
      <point x="102" y="918"/>
      <point x="141" y="961"/>
      <point x="196" y="961" type="curve" smooth="yes"/>
      <point x="251" y="961"/>
      <point x="290" y="918"/>
      <point x="290" y="868" type="curve" smooth="yes"/>
      <point x="290" y="818"/>
      <point x="251" y="776"/>
      <point x="196" y="776" type="curve" smooth="yes"/>
      <point x="141" y="776"/>
      <point x="102" y="818"/>
    </contour>
  </outline>
</glyph>
<glyph name="uni0237" format="1">
  <advance width="271"/>
  <unicode hex="0237"/>
  <outline>
    <contour>
      <point x="-34" y="-77" type="line"/>
      <point x="-20" y="-95"/>
      <point x="-5" y="-102"/>
      <point x="13" y="-102" type="curve" smooth="yes"/>
      <point x="43" y="-102"/>
      <point x="61" y="-81"/>
      <point x="61" y="-34" type="curve" smooth="yes"/>
      <point x="61" y="460" type="line"/>
      <point x="207" y="460" type="line"/>
      <point x="207" y="-72" type="line" smooth="yes"/>
      <point x="207" y="-174"/>
      <point x="149" y="-239"/>
      <point x="34" y="-239" type="curve" smooth="yes"/>
      <point x="-34" y="-239"/>
      <point x="-72" y="-208"/>
      <point x="-94" y="-188" type="curve"/>
    </contour>
  </outline>
</glyph>
<glyph name="dotaccent" format="1">
  <advance width="300"/>
  <unicode hex="02D9"/>
  <outline>
    <contour>
      <point x="56" y="815" type="curve" smooth="yes"/>
      <point x="56" y="865"/>
      <point x="95" y="908"/>
      <point x="150" y="908" type="curve" smooth="yes"/>
      <point x="205" y="908"/>
      <point x="244" y="865"/>
      <point x="244" y="815" type="curve" smooth="yes"/>
      <point x="244" y="765"/>
      <point x="205" y="722"/>
      <point x="150" y="722" type="curve" smooth="yes"/>
      <point x="95" y="722"/>
      <point x="56" y="765"/>
    </contour>
  </outline>
</glyph>
<glyph name="ellipsis" format="1">
  <advance width="925"/>
  <unicode hex="2026"/>
  <outline>
    <contour>
      <point x="67" y="68" type="curve" smooth="yes"/>
      <point x="67" y="118"/>
      <point x="106" y="160"/>
      <point x="161" y="160" type="curve" smooth="yes"/>
      <point x="216" y="160"/>
      <point x="256" y="118"/>
      <point x="256" y="68" type="curve" smooth="yes"/>
      <point x="256" y="18"/>
      <point x="216" y="-24"/>
      <point x="161" y="-24" type="curve" smooth="yes"/>
      <point x="106" y="-24"/>
      <point x="67" y="18"/>
    </contour>
    <contour>
      <point x="367" y="68" type="curve" smooth="yes"/>
      <point x="367" y="118"/>
      <point x="406" y="160"/>
      <point x="461" y="160" type="curve" smooth="yes"/>
      <point x="516" y="160"/>
      <point x="556" y="118"/>
      <point x="556" y="68" type="curve" smooth="yes"/>
      <point x="556" y="18"/>
      <point x="516" y="-24"/>
      <point x="461" y="-24" type="curve" smooth="yes"/>
      <point x="406" y="-24"/>
      <point x="367" y="18"/>
    </contour>
    <contour>
      <point x="667" y="68" type="curve" smooth="yes"/>
      <point x="667" y="118"/>
      <point x="706" y="160"/>
      <point x="761" y="160" type="curve" smooth="yes"/>
      <point x="816" y="160"/>
      <point x="856" y="118"/>
      <point x="856" y="68" type="curve" smooth="yes"/>
      <point x="856" y="18"/>
      <point x="816" y="-24"/>
      <point x="761" y="-24" type="curve" smooth="yes"/>
      <point x="706" y="-24"/>
      <point x="667" y="18"/>
    </contour>
  </outline>
</glyph>
<glyph name="uni203D" format="1">
  <advance width="627"/>
  <unicode hex="203D"/>
  <outline>
    <contour>
      <point x="434" y="481" type="curve" smooth="yes"/>
      <point x="434" y="555"/>
      <point x="380" y="592"/>
      <point x="300" y="592" type="curve" smooth="yes"/>
      <point x="240" y="592"/>
      <point x="181" y="566"/>
      <point x="150" y="504" type="curve"/>
      <point x="48" y="590" type="line"/>
      <point x="94" y="660"/>
      <point x="190" y="718"/>
      <point x="316" y="718" type="curve" smooth="yes"/>
      <point x="448" y="718"/>
      <point x="574" y="638"/>
      <point x="574" y="500" type="curve" smooth="yes"/>
      <point x="574" y="350"/>
      <point x="409" y="278"/>
      <point x="294" y="278" type="curve"/>
      <point x="275" y="348" type="line"/>
      <point x="357" y="348"/>
      <point x="434" y="405"/>
    </contour>
    <contour>
      <point x="216" y="504" type="line"/>
      <point x="360" y="504" type="line"/>
      <point x="333" y="201" type="line"/>
      <point x="243" y="201" type="line"/>
    </contour>
    <contour>
      <point x="198" y="62" type="curve" smooth="yes"/>
      <point x="198" y="111"/>
      <point x="239" y="148"/>
      <point x="294" y="148" type="curve" smooth="yes"/>
      <point x="349" y="148"/>
      <point x="390" y="111"/>
      <point x="390" y="62" type="curve" smooth="yes"/>
      <point x="390" y="13"/>
      <point x="349" y="-24"/>
      <point x="294" y="-24" type="curve" smooth="yes"/>
      <point x="239" y="-24"/>
      <point x="198" y="13"/>
    </contour>
  </outline>
</glyph>
<glyph name="uni2070" format="1">
  <advance width="390"/>
  <unicode hex="2070"/>
  <outline>
    <contour>
      <point x="118" y="490" type="curve" smooth="yes"/>
      <point x="118" y="411"/>
      <point x="150" y="360"/>
      <point x="196" y="360" type="curve" smooth="yes"/>
      <point x="242" y="360"/>
      <point x="272" y="411"/>
      <point x="272" y="490" type="curve" smooth="yes"/>
      <point x="272" y="569"/>
      <point x="242" y="620"/>
      <point x="196" y="620" type="curve" smooth="yes"/>
      <point x="150" y="620"/>
      <point x="118" y="569"/>
    </contour>
    <contour>
      <point x="20" y="490" type="curve" smooth="yes"/>
      <point x="20" y="626"/>
      <point x="93" y="708"/>
      <point x="196" y="708" type="curve" smooth="yes"/>
      <point x="303" y="708"/>
      <point x="370" y="626"/>
      <point x="370" y="490" type="curve" smooth="yes"/>
      <point x="370" y="354"/>
      <point x="303" y="272"/>
      <point x="196" y="272" type="curve" smooth="yes"/>
      <point x="93" y="272"/>
      <point x="20" y="354"/>
    </contour>
  </outline>
</glyph>
<glyph name="uni2074" format="1">
  <advance width="426"/>
  <unicode hex="2074"/>
  <outline>
    <contour>
      <point x="16" y="354" type="line"/>
      <point x="99" y="428" type="line"/>
      <point x="284" y="428" type="line" smooth="yes"/>
      <point x="294" y="441" type="line" smooth="yes"/>
      <point x="401" y="441" type="line"/>
      <point x="401" y="354" type="line"/>
    </contour>
    <contour>
      <point x="118" y="384" type="line"/>
      <point x="16" y="354" type="line"/>
      <point x="260" y="700" type="line"/>
      <point x="335" y="700" type="line"/>
      <point x="335" y="280" type="line"/>
      <point x="230" y="280" type="line"/>
      <point x="230" y="376" type="line" smooth="yes"/>
      <point x="241" y="382" type="line" smooth="yes"/>
      <point x="241" y="554" type="line"/>
    </contour>
  </outline>
</glyph>
<glyph name="uni2076" format="1">
  <advance width="383"/>
  <unicode hex="2076"/>
  <outline>
    <contour>
      <point x="122" y="426" type="curve" smooth="yes"/>
      <point x="122" y="383"/>
      <point x="154" y="355"/>
      <point x="194" y="355" type="curve" smooth="yes"/>
      <point x="234" y="355"/>
      <point x="264" y="383"/>
      <point x="264" y="426" type="curve" smooth="yes"/>
      <point x="264" y="469"/>
      <point x="234" y="497"/>
      <point x="194" y="497" type="curve" smooth="yes"/>
      <point x="154" y="497"/>
      <point x="122" y="469"/>
    </contour>
    <contour>
      <point x="192" y="696" type="line"/>
      <point x="321" y="696" type="line"/>
      <point x="185" y="544" type="line"/>
      <point x="164" y="536" type="line"/>
      <point x="186" y="558"/>
      <point x="204" y="562"/>
      <point x="234" y="562" type="curve" smooth="yes"/>
      <point x="296" y="562"/>
      <point x="364" y="510"/>
      <point x="364" y="426" type="curve" smooth="yes"/>
      <point x="364" y="323"/>
      <point x="288" y="268"/>
      <point x="194" y="268" type="curve" smooth="yes"/>
      <point x="100" y="268"/>
      <point x="22" y="323"/>
      <point x="22" y="426" type="curve" smooth="yes"/>
      <point x="22" y="471"/>
      <point x="44" y="508"/>
      <point x="71" y="542" type="curve" smooth="yes"/>
    </contour>
  </outline>
</glyph>
<glyph name="uni2083" format="1">
  <advance width="372"/>
  <unicode hex="2083"/>
  <outline>
    <contour>
      <point x="158" y="204" type="curve"/>
      <point x="158" y="249" type="line"/>
      <point x="204" y="249"/>
      <point x="236" y="276"/>
      <point x="236" y="306" type="curve" smooth="yes"/>
      <point x="236" y="331"/>
      <point x="220" y="347"/>
      <point x="188" y="347" type="curve" smooth="yes"/>
      <point x="156" y="347"/>
      <point x="134" y="327"/>
      <point x="134" y="297" type="curve"/>
      <point x="40" y="297" type="line"/>
      <point x="40" y="371"/>
      <point x="99" y="428"/>
      <point x="189" y="428" type="curve" smooth="yes"/>
      <point x="283" y="428"/>
      <point x="337" y="376"/>
      <point x="337" y="312" type="curve" smooth="yes"/>
      <point x="337" y="240"/>
      <point x="258" y="204"/>
    </contour>
    <contour>
      <point x="184" y="-10" type="curve" smooth="yes"/>
      <point x="82" y="-10"/>
      <point x="22" y="60"/>
      <point x="22" y="134" type="curve"/>
      <point x="122" y="134" type="line"/>
      <point x="122" y="92"/>
      <point x="153" y="72"/>
      <point x="188" y="72" type="curve" smooth="yes"/>
      <point x="223" y="72"/>
      <point x="248" y="88"/>
      <point x="248" y="124" type="curve" smooth="yes"/>
      <point x="248" y="159"/>
      <point x="220" y="184"/>
      <point x="158" y="184" type="curve"/>
      <point x="158" y="235" type="line"/>
      <point x="269" y="235"/>
      <point x="349" y="199"/>
      <point x="349" y="114" type="curve" smooth="yes"/>
      <point x="349" y="41"/>
      <point x="287" y="-10"/>
    </contour>
  </outline>
</glyph>
<glyph name="onethird" format="1">
  <advance width="873"/>
  <unicode hex="2153"/>
  <outline>
    <contour>
      <point x="598" y="700" type="line"/>
      <point x="720" y="700" type="line"/>
      <point x="200" y="0" type="line"/>
      <point x="78" y="0" type="line"/>
    </contour>
    <contour>
      <point x="24" y="572" type="line"/>
      <point x="24" y="661" type="line"/>
      <point x="226" y="702" type="line"/>
      <point x="226" y="274" type="line"/>
      <point x="128" y="274" type="line"/>
      <point x="128" y="598" type="line"/>
    </contour>
    <contour>
      <point x="659" y="204" type="curve"/>
      <point x="659" y="249" type="line"/>
      <point x="705" y="249"/>
      <point x="736" y="276"/>
      <point x="736" y="306" type="curve" smooth="yes"/>
      <point x="736" y="331"/>
      <point x="721" y="347"/>
      <point x="689" y="347" type="curve" smooth="yes"/>
      <point x="657" y="347"/>
      <point x="634" y="327"/>
      <point x="634" y="297" type="curve"/>
      <point x="540" y="297" type="line"/>
      <point x="540" y="371"/>
      <point x="600" y="428"/>
      <point x="690" y="428" type="curve" smooth="yes"/>
      <point x="784" y="428"/>
      <point x="837" y="376"/>
      <point x="837" y="312" type="curve" smooth="yes"/>
      <point x="837" y="240"/>
      <point x="759" y="204"/>
    </contour>
    <contour>
      <point x="684" y="-10" type="curve" smooth="yes"/>
      <point x="582" y="-10"/>
      <point x="522" y="60"/>
      <point x="522" y="134" type="curve"/>
      <point x="623" y="134" type="line"/>
      <point x="623" y="92"/>
      <point x="653" y="72"/>
      <point x="688" y="72" type="curve" smooth="yes"/>
      <point x="723" y="72"/>
      <point x="748" y="88"/>
      <point x="748" y="124" type="curve" smooth="yes"/>
      <point x="748" y="159"/>
      <point x="721" y="184"/>
      <point x="659" y="184" type="curve"/>
      <point x="659" y="235" type="line"/>
      <point x="770" y="235"/>
      <point x="849" y="199"/>
      <point x="849" y="114" type="curve" smooth="yes"/>
      <point x="849" y="41"/>
      <point x="787" y="-10"/>
    </contour>
  </outline>
</glyph>
<glyph name="uni2155" format="1">
  <advance width="862"/>
  <unicode hex="2155"/>
  <outline>
    <contour>
      <point x="599" y="700" type="line"/>
      <point x="720" y="700" type="line"/>
      <point x="200" y="0" type="line"/>
      <point x="79" y="0" type="line"/>
    </contour>
    <contour>
      <point x="24" y="572" type="line"/>
      <point x="24" y="661" type="line"/>
      <point x="226" y="702" type="line"/>
      <point x="226" y="274" type="line"/>
      <point x="128" y="274" type="line"/>
      <point x="128" y="598" type="line"/>
    </contour>
    <contour>
      <point x="840" y="132" type="curve" smooth="yes"/>
      <point x="840" y="34"/>
      <point x="751" y="-10"/>
      <point x="670" y="-10" type="curve" smooth="yes"/>
      <point x="593" y="-10"/>
      <point x="541" y="15"/>
      <point x="502" y="44" type="curve"/>
      <point x="542" y="129" type="line"/>
      <point x="576" y="101"/>
      <point x="617" y="83"/>
      <point x="648" y="83" type="curve" smooth="yes"/>
      <point x="698" y="83"/>
      <point x="729" y="103"/>
      <point x="729" y="144" type="curve" smooth="yes"/>
      <point x="729" y="185"/>
      <point x="689" y="202"/>
      <point x="648" y="202" type="curve" smooth="yes"/>
      <point x="616" y="202"/>
      <point x="573" y="196"/>
      <point x="530" y="175" type="curve"/>
      <point x="600" y="226" type="line"/>
      <point x="632" y="260"/>
      <point x="670" y="270"/>
      <point x="712" y="270" type="curve" smooth="yes"/>
      <point x="778" y="270"/>
      <point x="840" y="218"/>
    </contour>
    <contour>
      <point x="663" y="330" type="line"/>
      <point x="628" y="226" type="line"/>
      <point x="530" y="175" type="line"/>
      <point x="588" y="418" type="line"/>
      <point x="831" y="418" type="line"/>
      <point x="831" y="330" type="line"/>
    </contour>
  </outline>
</glyph>
<glyph name="uni2156" format="1">
  <advance width="1005"/>
  <unicode hex="2156"/>
  <outline>
    <contour>
      <point x="745" y="700" type="line"/>
      <point x="866" y="700" type="line"/>
      <point x="346" y="0" type="line"/>
      <point x="225" y="0" type="line"/>
    </contour>
    <contour>
      <point x="30" y="282" type="line"/>
      <point x="218" y="476" type="line" smooth="yes"/>
      <point x="252" y="512"/>
      <point x="272" y="536"/>
      <point x="272" y="570" type="curve" smooth="yes"/>
      <point x="272" y="597"/>
      <point x="254" y="624"/>
      <point x="216" y="624" type="curve" smooth="yes"/>
      <point x="177" y="624"/>
      <point x="150" y="592"/>
      <point x="150" y="547" type="curve"/>
      <point x="50" y="547" type="line"/>
      <point x="50" y="636"/>
      <point x="108" y="711"/>
      <point x="218" y="711" type="curve" smooth="yes"/>
      <point x="322" y="711"/>
      <point x="376" y="641"/>
      <point x="376" y="575" type="curve" smooth="yes"/>
      <point x="376" y="530"/>
      <point x="352" y="493"/>
      <point x="316" y="462" type="curve" smooth="yes"/>
      <point x="218" y="375" type="line"/>
      <point x="386" y="375" type="line"/>
      <point x="386" y="282" type="line"/>
    </contour>
    <contour>
      <point x="973" y="132" type="curve" smooth="yes"/>
      <point x="973" y="34"/>
      <point x="885" y="-10"/>
      <point x="804" y="-10" type="curve" smooth="yes"/>
      <point x="727" y="-10"/>
      <point x="675" y="15"/>
      <point x="636" y="44" type="curve"/>
      <point x="675" y="129" type="line"/>
      <point x="709" y="101"/>
      <point x="750" y="83"/>
      <point x="781" y="83" type="curve" smooth="yes"/>
      <point x="831" y="83"/>
      <point x="862" y="103"/>
      <point x="862" y="144" type="curve" smooth="yes"/>
      <point x="862" y="185"/>
      <point x="822" y="202"/>
      <point x="781" y="202" type="curve" smooth="yes"/>
      <point x="749" y="202"/>
      <point x="707" y="196"/>
      <point x="664" y="175" type="curve"/>
      <point x="734" y="226" type="line"/>
      <point x="766" y="260"/>
      <point x="804" y="270"/>
      <point x="846" y="270" type="curve" smooth="yes"/>
      <point x="912" y="270"/>
      <point x="973" y="218"/>
    </contour>
    <contour>
      <point x="796" y="330" type="line"/>
      <point x="761" y="226" type="line"/>
      <point x="664" y="175" type="line"/>
      <point x="722" y="418" type="line"/>
      <point x="964" y="418" type="line"/>
      <point x="964" y="330" type="line"/>
    </contour>
  </outline>
</glyph>
<glyph name="uni2158" format="1">
  <advance width="1016"/>
  <unicode hex="2158"/>
  <outline>
    <contour>
      <point x="734" y="700" type="line"/>
      <point x="855" y="700" type="line"/>
      <point x="335" y="-0" type="line"/>
      <point x="214" y="-0" type="line"/>
    </contour>
    <contour>
      <point x="22" y="354" type="line"/>
      <point x="105" y="428" type="line"/>
      <point x="291" y="428" type="line" smooth="yes"/>
      <point x="301" y="441" type="line" smooth="yes"/>
      <point x="408" y="441" type="line"/>
      <point x="408" y="354" type="line"/>
    </contour>
    <contour>
      <point x="124" y="384" type="line"/>
      <point x="22" y="354" type="line"/>
      <point x="266" y="700" type="line"/>
      <point x="342" y="700" type="line"/>
      <point x="342" y="280" type="line"/>
      <point x="236" y="280" type="line"/>
      <point x="236" y="376" type="line" smooth="yes"/>
      <point x="248" y="382" type="line" smooth="yes"/>
      <point x="248" y="554" type="line"/>
    </contour>
    <contour>
      <point x="986" y="132" type="curve" smooth="yes"/>
      <point x="986" y="34"/>
      <point x="898" y="-10"/>
      <point x="817" y="-10" type="curve" smooth="yes"/>
      <point x="740" y="-10"/>
      <point x="689" y="15"/>
      <point x="650" y="44" type="curve"/>
      <point x="688" y="128" type="line"/>
      <point x="722" y="100"/>
      <point x="763" y="82"/>
      <point x="794" y="82" type="curve" smooth="yes"/>
      <point x="844" y="82"/>
      <point x="876" y="102"/>
      <point x="876" y="143" type="curve" smooth="yes"/>
      <point x="876" y="184"/>
      <point x="835" y="202"/>
      <point x="794" y="202" type="curve" smooth="yes"/>
      <point x="762" y="202"/>
      <point x="720" y="195"/>
      <point x="677" y="174" type="curve"/>
      <point x="748" y="226" type="line"/>
      <point x="780" y="260"/>
      <point x="817" y="269"/>
      <point x="859" y="269" type="curve" smooth="yes"/>
      <point x="925" y="269"/>
      <point x="986" y="218"/>
    </contour>
    <contour>
      <point x="810" y="330" type="line"/>
      <point x="775" y="225" type="line"/>
      <point x="677" y="174" type="line"/>
      <point x="735" y="418" type="line"/>
      <point x="978" y="418" type="line"/>
      <point x="978" y="330" type="line"/>
    </contour>
  </outline>
</glyph>
<glyph name="uniFF14" format="1">
  <advance width="630"/>
  <unicode hex="FF14"/>
  <outline>
    <contour>
      <point x="12" y="124" type="line"/>
      <point x="150" y="246" type="line"/>
      <point x="428" y="246" type="line" smooth="yes"/>
      <point x="446" y="268" type="line" smooth="yes"/>
      <point x="610" y="268" type="line"/>
      <point x="610" y="124" type="line"/>
    </contour>
    <contour>
      <point x="170" y="174" type="line"/>
      <point x="12" y="124" type="line"/>
      <point x="387" y="700" type="line"/>
      <point x="513" y="700" type="line"/>
      <point x="513" y="0" type="line"/>
      <point x="337" y="0" type="line"/>
      <point x="337" y="160" type="line" smooth="yes"/>
      <point x="356" y="172" type="line" smooth="yes"/>
      <point x="356" y="454" type="line"/>
    </contour>
  </outline>
</glyph>
<glyph name="uniFF17" format="1">
  <advance width="630"/>
  <unicode hex="FF17"/>
  <outline>
    <contour>
      <point x="38" y="542" type="line"/>
      <point x="38" y="700" type="line"/>
      <point x="610" y="700" type="line"/>
      <point x="272" y="0" type="line"/>
      <point x="89" y="0" type="line"/>
      <point x="361" y="542" type="line"/>
    </contour>
  </outline>
</glyph>
<glyph name="adieresis.alt" format="1">
  <advance width="616"/>
  <outline>
    <contour>
      <point x="410" y="460" type="line"/>
      <point x="560" y="460" type="line"/>
      <point x="560" y="0" type="line"/>
      <point x="410" y="0" type="line"/>
    </contour>
    <contour>
      <point x="32" y="230" type="curve" smooth="yes"/>
      <point x="32" y="392"/>
      <point x="138" y="476"/>
      <point x="250" y="476" type="curve" smooth="yes"/>
      <point x="372" y="476"/>
      <point x="444" y="379"/>
      <point x="444" y="230" type="curve" smooth="yes"/>
      <point x="444" y="81"/>
      <point x="372" y="-16"/>
      <point x="250" y="-16" type="curve" smooth="yes"/>
      <point x="138" y="-16"/>
      <point x="32" y="68"/>
    </contour>
    <contour>
      <point x="191" y="230" type="curve" smooth="yes"/>
      <point x="191" y="158"/>
      <point x="241" y="118"/>
      <point x="301" y="118" type="curve" smooth="yes"/>
      <point x="352" y="118"/>
      <point x="408" y="155"/>
      <point x="408" y="230" type="curve" smooth="yes"/>
      <point x="408" y="305"/>
      <point x="352" y="342"/>
      <point x="301" y="342" type="curve" smooth="yes"/>
      <point x="241" y="342"/>
      <point x="191" y="302"/>
    </contour>
    <contour>
      <point x="348" y="628" type="curve" smooth="yes"/>
      <point x="348" y="678"/>
      <point x="387" y="721"/>
      <point x="442" y="721" type="curve" smooth="yes"/>
      <point x="497" y="721"/>
      <point x="537" y="678"/>
      <point x="537" y="628" type="curve" smooth="yes"/>
      <point x="537" y="578"/>
      <point x="497" y="536"/>
      <point x="442" y="536" type="curve" smooth="yes"/>
      <point x="387" y="536"/>
      <point x="348" y="578"/>
    </contour>
    <contour>
      <point x="104" y="628" type="curve" smooth="yes"/>
      <point x="104" y="678"/>
      <point x="143" y="721"/>
      <point x="198" y="721" type="curve" smooth="yes"/>
      <point x="253" y="721"/>
      <point x="293" y="678"/>
      <point x="293" y="628" type="curve" smooth="yes"/>
      <point x="293" y="578"/>
      <point x="253" y="536"/>
      <point x="198" y="536" type="curve" smooth="yes"/>
      <point x="143" y="536"/>
      <point x="104" y="578"/>
    </contour>
  </outline>
</glyph>
<glyph name="aring.alt" format="1">
  <advance width="616"/>
  <outline>
    <contour>
      <point x="410" y="460" type="line"/>
      <point x="560" y="460" type="line"/>
      <point x="560" y="0" type="line"/>
      <point x="410" y="0" type="line"/>
    </contour>
    <contour>
      <point x="32" y="230" type="curve" smooth="yes"/>
      <point x="32" y="392"/>
      <point x="138" y="476"/>
      <point x="250" y="476" type="curve" smooth="yes"/>
      <point x="372" y="476"/>
      <point x="444" y="379"/>
      <point x="444" y="230" type="curve" smooth="yes"/>
      <point x="444" y="81"/>
      <point x="372" y="-16"/>
      <point x="250" y="-16" type="curve" smooth="yes"/>
      <point x="138" y="-16"/>
      <point x="32" y="68"/>
    </contour>
    <contour>
      <point x="191" y="230" type="curve" smooth="yes"/>
      <point x="191" y="158"/>
      <point x="241" y="118"/>
      <point x="301" y="118" type="curve" smooth="yes"/>
      <point x="352" y="118"/>
      <point x="408" y="155"/>
      <point x="408" y="230" type="curve" smooth="yes"/>
      <point x="408" y="305"/>
      <point x="352" y="342"/>
      <point x="301" y="342" type="curve" smooth="yes"/>
      <point x="241" y="342"/>
      <point x="191" y="302"/>
    </contour>
    <contour>
      <point x="210" y="628" type="curve" smooth="yes"/>
      <point x="210" y="697"/>
      <point x="265" y="744"/>
      <point x="335" y="744" type="curve" smooth="yes"/>
      <point x="405" y="744"/>
      <point x="460" y="697"/>
      <point x="460" y="628" type="curve" smooth="yes"/>
      <point x="460" y="559"/>
      <point x="405" y="512"/>
      <point x="335" y="512" type="curve" smooth="yes"/>
      <point x="265" y="512"/>
      <point x="210" y="559"/>
    </contour>
    <contour>
      <point x="289" y="628" type="curve" smooth="yes"/>
      <point x="289" y="598"/>
      <point x="310" y="580"/>
      <point x="335" y="580" type="curve" smooth="yes"/>
      <point x="360" y="580"/>
      <point x="382" y="598"/>
      <point x="382" y="628" type="curve" smooth="yes"/>
      <point x="382" y="658"/>
      <point x="360" y="676"/>
      <point x="335" y="676" type="curve" smooth="yes"/>
      <point x="310" y="676"/>
      <point x="289" y="658"/>
    </contour>
  </outline>
</glyph>
<glyph name="atilde.alt" format="1">
  <advance width="616"/>
  <outline>
    <contour>
      <point x="410" y="460" type="line"/>
      <point x="560" y="460" type="line"/>
      <point x="560" y="0" type="line"/>
      <point x="410" y="0" type="line"/>
    </contour>
    <contour>
      <point x="32" y="230" type="curve" smooth="yes"/>
      <point x="32" y="392"/>
      <point x="138" y="476"/>
      <point x="250" y="476" type="curve" smooth="yes"/>
      <point x="372" y="476"/>
      <point x="444" y="379"/>
      <point x="444" y="230" type="curve" smooth="yes"/>
      <point x="444" y="81"/>
      <point x="372" y="-16"/>
      <point x="250" y="-16" type="curve" smooth="yes"/>
      <point x="138" y="-16"/>
      <point x="32" y="68"/>
    </contour>
    <contour>
      <point x="191" y="230" type="curve" smooth="yes"/>
      <point x="191" y="158"/>
      <point x="241" y="118"/>
      <point x="301" y="118" type="curve" smooth="yes"/>
      <point x="352" y="118"/>
      <point x="408" y="155"/>
      <point x="408" y="230" type="curve" smooth="yes"/>
      <point x="408" y="305"/>
      <point x="352" y="342"/>
      <point x="301" y="342" type="curve" smooth="yes"/>
      <point x="241" y="342"/>
      <point x="191" y="302"/>
    </contour>
    <contour>
      <point x="124" y="598" type="line"/>
      <point x="134" y="647"/>
      <point x="180" y="692"/>
      <point x="244" y="692" type="curve" smooth="yes"/>
      <point x="310" y="692"/>
      <point x="324" y="641"/>
      <point x="380" y="641" type="curve" smooth="yes"/>
      <point x="406" y="641"/>
      <point x="426" y="662"/>
      <point x="446" y="694" type="curve"/>
      <point x="517" y="620" type="line"/>
      <point x="501" y="583"/>
      <point x="444" y="534"/>
      <point x="382" y="534" type="curve" smooth="yes"/>
      <point x="327" y="534"/>
      <point x="293" y="588"/>
      <point x="243" y="588" type="curve" smooth="yes"/>
      <point x="205" y="588"/>
      <point x="196" y="551"/>
      <point x="196" y="536" type="curve"/>
    </contour>
  </outline>
</glyph>
